<?xml version="1.0" standalone="no"?>
<!DOCTYPE svg PUBLIC "-//W3C//DTD SVG 20010904//EN"
 "http://www.w3.org/TR/2001/REC-SVG-20010904/DTD/svg10.dtd">
<svg version="1.0" xmlns="http://www.w3.org/2000/svg"
 width="300.000000pt" height="300.000000pt" viewBox="0 0 300.000000 300.000000"
 preserveAspectRatio="xMidYMid meet">
<metadata>
Created by potrace 1.11, written by Peter Selinger 2001-2013
</metadata>
<g transform="translate(0.000000,300.000000) scale(0.100000,-0.100000)"
fill="#000000" stroke="none">
<path d="M590 2869 c-32 -13 -59 -38 -76 -71 -13 -24 -11 -35 15 -113 17 -47
39 -134 50 -193 20 -106 24 -135 36 -262 3 -36 8 -85 10 -110 3 -25 7 -70 10
-100 3 -30 7 -75 10 -100 2 -25 7 -79 11 -120 3 -41 8 -92 10 -114 2 -21 6
-73 9 -116 3 -43 7 -95 10 -116 2 -22 6 -75 9 -119 4 -44 8 -96 11 -115 2 -19
7 -66 10 -105 9 -114 15 -175 25 -275 5 -52 12 -126 15 -165 3 -38 8 -77 10
-85 2 -8 7 -28 9 -45 4 -24 37 -184 62 -300 2 -11 9 -44 15 -72 7 -38 15 -53
27 -54 37 -3 137 3 142 8 12 12 -1 339 -15 362 -1 3 -6 22 -9 41 -3 19 -10 50
-16 69 -5 19 -8 36 -7 38 2 1 336 3 742 3 815 1 783 -2 818 63 26 48 38 107
24 112 -7 2 -232 6 -502 10 -269 3 -515 8 -545 9 -30 2 -104 7 -165 10 -179
11 -231 19 -287 43 -21 9 -38 22 -38 30 0 27 40 173 72 260 63 174 129 283
418 688 135 190 398 582 488 727 l42 67 -27 20 c-56 45 -122 15 -249 -113
-109 -110 -240 -284 -394 -525 -63 -99 -120 -188 -125 -198 -9 -16 -81 -134
-105 -173 -6 -8 -47 -76 -91 -150 -86 -143 -129 -208 -130 -200 0 3 -2 14 -4
25 -2 11 -7 47 -10 80 -3 33 -8 71 -10 85 -2 14 -7 52 -10 84 -3 33 -8 73 -10
90 -2 17 -7 58 -10 91 -4 33 -8 76 -11 95 -17 151 -22 192 -34 305 -11 102
-15 140 -24 210 -3 22 -8 67 -11 100 -3 33 -8 71 -10 85 -2 14 -7 57 -11 95
-4 49 -15 87 -35 125 -40 76 -84 100 -139 79z"/>
</g>
</svg>
